<svg width="1780" height="882" xmlns="http://www.w3.org/2000/svg"><g><path d="M-26,-133L-99,74L118,-63Z" fill="#f6fcfd" stroke="#f6fcfd"/><path d="M-26,-133L118,-63L217,-116Z" fill="#eef6fa" stroke="#eef6fa"/><path d="M-26,-133L217,-116L835,-127Z" fill="#dae7f2" stroke="#dae7f2"/><path d="M118,-63L-99,74L106,110Z" fill="#eef8fc" stroke="#eef8fc"/><path d="M118,-63L106,110L197,26Z" fill="#e8f3f9" stroke="#e8f3f9"/><path d="M118,-63L197,26L217,-116Z" fill="#e8f1f7" stroke="#e8f1f7"/><path d="M217,-116L197,26L352,-32Z" fill="#e1ecf5" stroke="#e1ecf5"/><path d="M217,-116L352,-32L522,-36Z" fill="#d9e6f1" stroke="#d9e6f1"/><path d="M217,-116L522,-36L733,-119Z" fill="#d2dcec" stroke="#d2dcec"/><path d="M217,-116L733,-119L835,-127Z" fill="#ccd4e8" stroke="#ccd4e8"/><path d="M352,-32L197,26L337,88Z" fill="#dbe9f3" stroke="#dbe9f3"/><path d="M352,-32L337,88L522,-36Z" fill="#d6e3ef" stroke="#d6e3ef"/><path d="M522,-36L337,88L511,131Z" fill="#ccdded" stroke="#ccdded"/><path d="M522,-36L511,131L732,67Z" fill="#c6d3e8" stroke="#c6d3e8"/><path d="M522,-36L732,67L733,-119Z" fill="#c8cfe5" stroke="#c8cfe5"/><path d="M733,-119L732,67L835,-127Z" fill="#c5c6e0" stroke="#c5c6e0"/><path d="M835,-127L732,67L846,98Z" fill="#c4c2df" stroke="#c4c2df"/><path d="M835,-127L846,98L982,-62Z" fill="#c5bbdb" stroke="#c5bbdb"/><path d="M835,-127L982,-62L1075,-92Z" fill="#c4b4d8" stroke="#c4b4d8"/><path d="M835,-127L1075,-92L1478,-102Z" fill="#c3a5d0" stroke="#c3a5d0"/><path d="M835,-127L1478,-102L1713,-115Z" fill="#c18fc3" stroke="#c18fc3"/><path d="M982,-62L846,98L974,114Z" fill="#bfb5d9" stroke="#bfb5d9"/><path d="M982,-62L974,114L1156,72Z" fill="#bfadd5" stroke="#bfadd5"/><path d="M982,-62L1156,72L1075,-92Z" fill="#c4aad3" stroke="#c4aad3"/><path d="M1075,-92L1156,72L1219,-82Z" fill="#c3a3ce" stroke="#c3a3ce"/><path d="M1075,-92L1219,-82L1478,-102Z" fill="#c298c8" stroke="#c298c8"/><path d="M1219,-82L1156,72L1261,28Z" fill="#c29ccb" stroke="#c29ccb"/><path d="M1219,-82L1261,28L1478,-102Z" fill="#c192c4" stroke="#c192c4"/><path d="M1478,-102L1261,28L1432,98Z" fill="#c08bc0" stroke="#c08bc0"/><path d="M1478,-102L1432,98L1536,-19Z" fill="#c081ba" stroke="#c081ba"/><path d="M1478,-102L1536,-19L1713,-115Z" fill="#bf80b5" stroke="#bf80b5"/><path d="M1536,-19L1432,98L1627,62Z" fill="#ba7eb7" stroke="#ba7eb7"/><path d="M1536,-19L1627,62L1713,-115Z" fill="#be80b2" stroke="#be80b2"/><path d="M1713,-115L1627,62L1677,112Z" fill="#bb7faf" stroke="#bb7faf"/><path d="M1713,-115L1677,112L1886,69Z" fill="#ba7faa" stroke="#ba7faa"/><path d="M1713,-115L1886,69L1893,-38Z" fill="#bc80a5" stroke="#bc80a5"/><path d="M1893,-38L1886,69L1918,266Z" fill="#b07da1" stroke="#b07da1"/><path d="M-99,74L-115,246L106,110Z" fill="#e8fafe" stroke="#e8fafe"/><path d="M106,110L-115,246L133,211Z" fill="#dcf2fb" stroke="#dcf2fb"/><path d="M106,110L133,211L197,26Z" fill="#dceff8" stroke="#dceff8"/><path d="M197,26L133,211L337,88Z" fill="#d7ebf6" stroke="#d7ebf6"/><path d="M337,88L133,211L220,273Z" fill="#cde6f4" stroke="#cde6f4"/><path d="M337,88L220,273L399,195Z" fill="#c6e2f2" stroke="#c6e2f2"/><path d="M337,88L399,195L511,131Z" fill="#c5deef" stroke="#c5deef"/><path d="M511,131L399,195L501,200Z" fill="#bed8ed" stroke="#bed8ed"/><path d="M511,131L501,200L726,283Z" fill="#b5cae7" stroke="#b5cae7"/><path d="M511,131L726,283L732,67Z" fill="#b6cbe5" stroke="#b6cbe5"/><path d="M732,67L726,283L799,256Z" fill="#adbddf" stroke="#adbddf"/><path d="M732,67L799,256L846,98Z" fill="#b5c0df" stroke="#b5c0df"/><path d="M846,98L799,256L947,211Z" fill="#aeb6dc" stroke="#aeb6dc"/><path d="M846,98L947,211L974,114Z" fill="#b4b4da" stroke="#b4b4da"/><path d="M974,114L947,211L1132,176Z" fill="#b0abd5" stroke="#b0abd5"/><path d="M974,114L1132,176L1156,72Z" fill="#b5a5d2" stroke="#b5a5d2"/><path d="M1156,72L1132,176L1254,238Z" fill="#af9bcc" stroke="#af9bcc"/><path d="M1156,72L1254,238L1261,28Z" fill="#b598ca" stroke="#b598ca"/><path d="M1261,28L1254,238L1432,98Z" fill="#b38fc4" stroke="#b38fc4"/><path d="M1432,98L1254,238L1397,242Z" fill="#aa86c1" stroke="#aa86c1"/><path d="M1432,98L1397,242L1555,242Z" fill="#a87bba" stroke="#a87bba"/><path d="M1432,98L1555,242L1627,62Z" fill="#af7cb7" stroke="#af7cb7"/><path d="M1627,62L1555,242L1677,112Z" fill="#ae7cb2" stroke="#ae7cb2"/><path d="M1677,112L1555,242L1684,222Z" fill="#a778b0" stroke="#a778b0"/><path d="M1677,112L1684,222L1886,69Z" fill="#ad7caa" stroke="#ad7caa"/><path d="M1886,69L1684,222L1918,266Z" fill="#a679a5" stroke="#a679a5"/><path d="M-115,246L-125,924L-78,551Z" fill="#cfaadd" stroke="#cfaadd"/><path d="M-115,246L-78,551L-26,404Z" fill="#d0cff1" stroke="#d0cff1"/><path d="M-115,246L-26,404L125,325Z" fill="#cedbf5" stroke="#cedbf5"/><path d="M-115,246L125,325L133,211Z" fill="#d2e4f7" stroke="#d2e4f7"/><path d="M133,211L125,325L220,273Z" fill="#c8dcf3" stroke="#c8dcf3"/><path d="M220,273L125,325L280,382Z" fill="#bdceee" stroke="#bdceee"/><path d="M220,273L280,382L399,195Z" fill="#bbd1ed" stroke="#bbd1ed"/><path d="M399,195L280,382L480,342Z" fill="#b2c6e9" stroke="#b2c6e9"/><path d="M399,195L480,342L501,200Z" fill="#b6ccea" stroke="#b6ccea"/><path d="M501,200L480,342L726,283Z" fill="#acbee3" stroke="#acbee3"/><path d="M726,283L480,342L654,413Z" fill="#a0addd" stroke="#a0addd"/><path d="M726,283L654,413L779,396Z" fill="#9aa2d8" stroke="#9aa2d8"/><path d="M726,283L779,396L799,256Z" fill="#9fa7d9" stroke="#9fa7d9"/><path d="M799,256L779,396L916,362Z" fill="#9b9dd5" stroke="#9b9dd5"/><path d="M799,256L916,362L947,211Z" fill="#a3a3d6" stroke="#a3a3d6"/><path d="M947,211L916,362L1070,381Z" fill="#9d93d0" stroke="#9d93d0"/><path d="M947,211L1070,381L1132,176Z" fill="#a498d0" stroke="#a498d0"/><path d="M1132,176L1070,381L1254,238Z" fill="#a28dc9" stroke="#a28dc9"/><path d="M1254,238L1070,381L1247,375Z" fill="#9a7dc3" stroke="#9a7dc3"/><path d="M1254,238L1247,375L1397,242Z" fill="#9e7abf" stroke="#9e7abf"/><path d="M1397,242L1247,375L1476,403Z" fill="#9669b8" stroke="#9669b8"/><path d="M1397,242L1476,403L1555,242Z" fill="#9b67b4" stroke="#9b67b4"/><path d="M1555,242L1476,403L1603,379Z" fill="#955cad" stroke="#955cad"/><path d="M1555,242L1603,379L1684,222Z" fill="#9c67ad" stroke="#9c67ad"/><path d="M1684,222L1603,379L1715,402Z" fill="#945da7" stroke="#945da7"/><path d="M1684,222L1715,402L1851,377Z" fill="#945da2" stroke="#945da2"/><path d="M1684,222L1851,377L1918,266Z" fill="#9966a0" stroke="#9966a0"/><path d="M1918,266L1851,377L1835,487Z" fill="#8f5597" stroke="#8f5597"/><path d="M1918,266L1835,487L1934,859Z" fill="#8d3284" stroke="#8d3284"/><path d="M-26,404L-78,551L59,471Z" fill="#cabce7" stroke="#cabce7"/><path d="M-26,404L59,471L125,325Z" fill="#c5c8ed" stroke="#c5c8ed"/><path d="M125,325L59,471L212,468Z" fill="#bebfe8" stroke="#bebfe8"/><path d="M125,325L212,468L280,382Z" fill="#b9c1e9" stroke="#b9c1e9"/><path d="M280,382L212,468L347,486Z" fill="#b2b1e1" stroke="#b2b1e1"/><path d="M280,382L347,486L361,427Z" fill="#aeb1e0" stroke="#aeb1e0"/><path d="M280,382L361,427L480,342Z" fill="#acb8e4" stroke="#acb8e4"/><path d="M361,427L347,486L537,543Z" fill="#a89fd7" stroke="#a89fd7"/><path d="M361,427L537,543L480,342Z" fill="#a7a6db" stroke="#a7a6db"/><path d="M480,342L537,543L627,495Z" fill="#a19ad5" stroke="#a19ad5"/><path d="M480,342L627,495L654,413Z" fill="#a0a0d8" stroke="#a0a0d8"/><path d="M654,413L627,495L787,475Z" fill="#998fcf" stroke="#998fcf"/><path d="M654,413L787,475L779,396Z" fill="#9992d0" stroke="#9992d0"/><path d="M779,396L787,475L916,362Z" fill="#988ece" stroke="#988ece"/><path d="M916,362L787,475L1028,501Z" fill="#977ec7" stroke="#977ec7"/><path d="M916,362L1028,501L1070,381Z" fill="#977dc6" stroke="#977dc6"/><path d="M1070,381L1028,501L1144,469Z" fill="#966ebf" stroke="#966ebf"/><path d="M1070,381L1144,469L1247,375Z" fill="#9670bf" stroke="#9670bf"/><path d="M1247,375L1144,469L1310,492Z" fill="#9560b6" stroke="#9560b6"/><path d="M1247,375L1310,492L1476,403Z" fill="#945ab2" stroke="#945ab2"/><path d="M1476,403L1310,492L1415,550Z" fill="#9248a8" stroke="#9248a8"/><path d="M1476,403L1415,550L1586,486Z" fill="#923fa3" stroke="#923fa3"/><path d="M1476,403L1586,486L1603,379Z" fill="#924ba5" stroke="#924ba5"/><path d="M1603,379L1586,486L1684,485Z" fill="#91459e" stroke="#91459e"/><path d="M1603,379L1684,485L1715,402Z" fill="#914b9e" stroke="#914b9e"/><path d="M1715,402L1684,485L1835,487Z" fill="#904396" stroke="#904396"/><path d="M1715,402L1835,487L1851,377Z" fill="#904b96" stroke="#904b96"/><path d="M-78,551L-125,924L-51,667Z" fill="#cb90c9" stroke="#cb90c9"/><path d="M-78,551L-51,667L59,471Z" fill="#c9aadd" stroke="#c9aadd"/><path d="M59,471L-51,667L99,713Z" fill="#c39dd4" stroke="#c39dd4"/><path d="M59,471L99,713L215,629Z" fill="#bc99d2" stroke="#bc99d2"/><path d="M59,471L215,629L212,468Z" fill="#bba7dc" stroke="#bba7dc"/><path d="M212,468L215,629L347,486Z" fill="#b3a0d9" stroke="#b3a0d9"/><path d="M347,486L215,629L400,703Z" fill="#ac8dcb" stroke="#ac8dcb"/><path d="M347,486L400,703L537,543Z" fill="#a68bcb" stroke="#a68bcb"/><path d="M537,543L400,703L527,695Z" fill="#a179bf" stroke="#a179bf"/><path d="M537,543L527,695L627,495Z" fill="#9e81c6" stroke="#9e81c6"/><path d="M627,495L527,695L734,727Z" fill="#9970ba" stroke="#9970ba"/><path d="M627,495L734,727L787,475Z" fill="#9677c1" stroke="#9677c1"/><path d="M787,475L734,727L783,719Z" fill="#9464b4" stroke="#9464b4"/><path d="M787,475L783,719L967,687Z" fill="#9460b3" stroke="#9460b3"/><path d="M787,475L967,687L1028,501Z" fill="#9666ba" stroke="#9666ba"/><path d="M1028,501L967,687L1157,637Z" fill="#9351ad" stroke="#9351ad"/><path d="M1028,501L1157,637L1144,469Z" fill="#9559b4" stroke="#9559b4"/><path d="M1144,469L1157,637L1310,492Z" fill="#9450af" stroke="#9450af"/><path d="M1310,492L1157,637L1291,724Z" fill="#913b9f" stroke="#913b9f"/><path d="M1310,492L1291,724L1415,550Z" fill="#91389e" stroke="#91389e"/><path d="M1415,550L1291,724L1472,621Z" fill="#902a95" stroke="#902a95"/><path d="M1415,550L1472,621L1586,486Z" fill="#91309a" stroke="#91309a"/><path d="M1586,486L1472,621L1635,643Z" fill="#8f2991" stroke="#8f2991"/><path d="M1586,486L1635,643L1684,485Z" fill="#903294" stroke="#903294"/><path d="M1684,485L1635,643L1754,667Z" fill="#8e2688" stroke="#8e2688"/><path d="M1684,485L1754,667L1835,487Z" fill="#8e308b" stroke="#8e308b"/><path d="M1835,487L1754,667L1835,650Z" fill="#8c2680" stroke="#8c2680"/><path d="M1835,487L1835,650L1934,859Z" fill="#8a1973" stroke="#8a1973"/><path d="M-51,667L-125,924L-53,772Z" fill="#c882be" stroke="#c882be"/><path d="M-51,667L-53,772L99,713Z" fill="#c38cc6" stroke="#c38cc6"/><path d="M99,713L-53,772L47,843Z" fill="#c07ebd" stroke="#c07ebd"/><path d="M99,713L47,843L277,861Z" fill="#b674b4" stroke="#b674b4"/><path d="M99,713L277,861L215,629Z" fill="#b37cbd" stroke="#b37cbd"/><path d="M215,629L277,861L400,703Z" fill="#ab77ba" stroke="#ab77ba"/><path d="M400,703L277,861L397,854Z" fill="#a467ad" stroke="#a467ad"/><path d="M400,703L397,854L483,789Z" fill="#a164ae" stroke="#a164ae"/><path d="M400,703L483,789L527,695Z" fill="#a06bb4" stroke="#a06bb4"/><path d="M527,695L483,789L636,800Z" fill="#9b5fac" stroke="#9b5fac"/><path d="M527,695L636,800L734,727Z" fill="#975cab" stroke="#975cab"/><path d="M734,727L636,800L778,831Z" fill="#914da2" stroke="#914da2"/><path d="M734,727L778,831L783,719Z" fill="#924ea3" stroke="#924ea3"/><path d="M783,719L778,831L928,856Z" fill="#91419a" stroke="#91419a"/><path d="M783,719L928,856L967,687Z" fill="#91449e" stroke="#91449e"/><path d="M967,687L928,856L1066,826Z" fill="#903495" stroke="#903495"/><path d="M967,687L1066,826L1157,637Z" fill="#913b9c" stroke="#913b9c"/><path d="M1157,637L1066,826L1246,858Z" fill="#8f278e" stroke="#8f278e"/><path d="M1157,637L1246,858L1291,724Z" fill="#8f268f" stroke="#8f268f"/><path d="M1291,724L1246,858L1475,841Z" fill="#8c107e" stroke="#8c107e"/><path d="M1291,724L1475,841L1472,621Z" fill="#8d1685" stroke="#8d1685"/><path d="M1472,621L1475,841L1635,643Z" fill="#8d1283" stroke="#8d1283"/><path d="M1635,643L1475,841L1588,872Z" fill="#8a0374" stroke="#8a0374"/><path d="M1635,643L1588,872L1687,804Z" fill="#8a0572" stroke="#8a0572"/><path d="M1635,643L1687,804L1754,667Z" fill="#8b1278" stroke="#8b1278"/><path d="M1754,667L1687,804L1934,859Z" fill="#890468" stroke="#890468"/><path d="M1754,667L1934,859L1835,650Z" fill="#890e6c" stroke="#890e6c"/><path d="M-53,772L-125,924L47,843Z" fill="#c47fb5" stroke="#c47fb5"/><path d="M47,843L-125,924L71,1009Z" fill="#bf7ca8" stroke="#bf7ca8"/><path d="M47,843L71,1009L254,924Z" fill="#b575a4" stroke="#b575a4"/><path d="M47,843L254,924L277,861Z" fill="#b071a9" stroke="#b071a9"/><path d="M277,861L254,924L397,854Z" fill="#a76aa4" stroke="#a76aa4"/><path d="M397,854L254,924L363,1010Z" fill="#a3689c" stroke="#a3689c"/><path d="M397,854L363,1010L528,967Z" fill="#9d6196" stroke="#9d6196"/><path d="M397,854L528,967L483,789Z" fill="#9d5e9f" stroke="#9d5e9f"/><path d="M483,789L528,967L636,800Z" fill="#99589f" stroke="#99589f"/><path d="M636,800L528,967L620,964Z" fill="#955495" stroke="#955495"/><path d="M636,800L620,964L778,831Z" fill="#924e98" stroke="#924e98"/><path d="M778,831L620,964L870,1006Z" fill="#8e478a" stroke="#8e478a"/><path d="M778,831L870,1006L928,856Z" fill="#8e3e8b" stroke="#8e3e8b"/><path d="M928,856L870,1006L968,994Z" fill="#8d3881" stroke="#8d3881"/><path d="M928,856L968,994L1067,962Z" fill="#8c3280" stroke="#8c3280"/><path d="M928,856L1067,962L1066,826Z" fill="#8e3086" stroke="#8e3086"/><path d="M1066,826L1067,962L1246,858Z" fill="#8d2581" stroke="#8d2581"/><path d="M1246,858L1067,962L1302,1024Z" fill="#8a1e72" stroke="#8a1e72"/><path d="M1246,858L1302,1024L1475,841Z" fill="#8a1070" stroke="#8a1070"/><path d="M1475,841L1302,1024L1458,1023Z" fill="#880964" stroke="#880964"/><path d="M1475,841L1458,1023L1550,960Z" fill="#880162" stroke="#880162"/><path d="M1475,841L1550,960L1588,872Z" fill="#890066" stroke="#890066"/><path d="M1588,872L1550,960L1758,934Z" fill="#87005c" stroke="#87005c"/><path d="M1588,872L1758,934L1687,804Z" fill="#880061" stroke="#880061"/><path d="M1687,804L1758,934L1880,917Z" fill="#860059" stroke="#860059"/><path d="M1687,804L1880,917L1934,859Z" fill="#860059" stroke="#860059"/><path d="M71,1009L1302,1024L363,1010Z" fill="#945686" stroke="#945686"/><path d="M71,1009L363,1010L254,924Z" fill="#ab6e98" stroke="#ab6e98"/><path d="M363,1010L1302,1024L870,1006Z" fill="#8c3f7b" stroke="#8c3f7b"/><path d="M363,1010L870,1006L620,964Z" fill="#925388" stroke="#925388"/><path d="M363,1010L620,964L528,967Z" fill="#995b8e" stroke="#995b8e"/><path d="M870,1006L1302,1024L968,994Z" fill="#8a2d73" stroke="#8a2d73"/><path d="M968,994L1302,1024L1067,962Z" fill="#8a2772" stroke="#8a2772"/><path d="M1458,1023L1880,917L1758,934Z" fill="#860053" stroke="#860053"/><path d="M1458,1023L1758,934L1550,960Z" fill="#860058" stroke="#860058"/></g></svg>